<?xml version="1.0" encoding="iso-8859-1"?>
<!-- Uploaded to: SVG Repo, www.svgrepo.com, Generator: SVG Repo Mixer Tools -->
<svg version="1.1" id="Layer_1" xmlns="http://www.w3.org/2000/svg" xmlns:xlink="http://www.w3.org/1999/xlink" 
	 viewBox="0 0 511.999 511.999" xml:space="preserve">
<rect x="212.569" y="135.161" style="fill:#B27214;" width="91.433" height="246.869"/>
<g>
	<path style="fill:#E09B2D;" d="M227.076,346.266c17.875,17.875,28.927,42.562,28.927,69.832c-54.551,0-98.77-44.219-98.77-98.759
		C184.503,317.339,209.201,328.391,227.076,346.266z"/>
	<path style="fill:#E09B2D;" d="M227.076,269.177c17.875,17.875,28.927,42.562,28.927,69.832c-54.551,0-98.77-44.219-98.77-98.759
		C184.503,240.25,209.201,251.302,227.076,269.177z"/>
	<path style="fill:#E09B2D;" d="M227.076,192.088c17.875,17.875,28.927,42.562,28.927,69.832c-54.551,0-98.77-44.219-98.77-98.759
		C184.503,163.161,209.201,174.212,227.076,192.088z"/>
	<path style="fill:#E09B2D;" d="M240.448,131.605c9.84,15.361,15.555,33.624,15.555,53.225c-54.551,0-98.77-44.219-98.77-98.759
		c27.27,0,51.968,11.052,69.843,28.927C232.105,120.027,236.597,125.593,240.448,131.605z"/>
</g>
<g>
	<path style="fill:#F7B239;" d="M354.762,317.339c0,54.54-44.219,98.759-98.759,98.759c0-27.27,11.052-51.957,28.927-69.832
		C302.794,328.391,327.481,317.339,354.762,317.339z"/>
	<path style="fill:#F7B239;" d="M354.762,240.25c0,54.54-44.219,98.759-98.759,98.759c0-27.27,11.052-51.957,28.927-69.832
		C302.794,251.302,327.481,240.25,354.762,240.25z"/>
	<path style="fill:#F7B239;" d="M354.762,163.161c0,54.54-44.219,98.759-98.759,98.759c0-27.27,11.052-51.957,28.927-69.832
		C302.794,174.212,327.481,163.161,354.762,163.161z"/>
	<path style="fill:#F7B239;" d="M354.762,86.071c0,54.54-44.219,98.759-98.759,98.759c0-19.601,5.715-37.865,15.555-53.225
		c3.852-6.012,8.343-11.578,13.372-16.606C302.794,97.123,327.481,86.071,354.762,86.071z"/>
	<path style="fill:#F7B239;" d="M256.003,8.57c33.144,33.144,37.796,83.993,13.978,122.12c-3.897,6.24-8.56,12.138-13.978,17.555
		c-5.429-5.417-10.092-11.315-13.989-17.555c-9.966-15.944-14.938-34.116-14.938-52.288C227.076,53.132,236.711,27.863,256.003,8.57
		z"/>
</g>
<g>
	<circle style="fill:#FFFFFF;" cx="324.574" cy="347.743" r="8.572"/>
	<circle style="fill:#FFFFFF;" cx="324.574" cy="272.311" r="8.572"/>
	<circle style="fill:#FFFFFF;" cx="324.574" cy="193.45" r="8.572"/>
	<circle style="fill:#FFFFFF;" cx="324.574" cy="119.732" r="8.572"/>
	<circle style="fill:#FFFFFF;" cx="257.143" cy="47.157" r="8.572"/>
</g>
<path style="fill:#333333;" d="M354.761,154.586c-5.926,0-11.74,0.49-17.408,1.42c16.182-18.799,25.979-43.243,25.979-69.936
	c0-4.734-3.838-8.572-8.572-8.572c-23.543,0-45.335,7.624-63.049,20.527c1.177-6.406,1.785-12.965,1.785-19.618
	c0-28.67-11.165-55.623-31.438-75.896c-3.348-3.348-8.775-3.348-12.122,0c-20.273,20.272-31.437,47.226-31.437,75.896
	c0,6.653,0.609,13.212,1.785,19.618c-17.714-12.902-39.506-20.527-63.049-20.527c-4.734,0-8.572,3.838-8.572,8.572
	c0,26.684,9.79,51.121,25.965,69.918c-5.697-0.922-11.508-1.401-17.393-1.401c-4.734,0-8.572,3.838-8.572,8.572
	c0,26.692,9.797,51.137,25.98,69.936c-5.668-0.929-11.481-1.419-17.408-1.419c-4.734,0-8.572,3.838-8.572,8.572
	c0,26.692,9.797,51.137,25.98,69.936c-5.668-0.929-11.482-1.419-17.408-1.419c-4.734,0-8.572,3.838-8.572,8.572
	c0,56.299,43.57,102.609,98.762,106.99v79.102c0,4.734,3.838,8.572,8.572,8.572s8.572-3.838,8.572-8.572v-79.102
	c55.191-4.382,98.761-50.693,98.761-106.99c0-4.734-3.838-8.572-8.572-8.572c-5.927,0-11.74,0.49-17.408,1.419
	c16.184-18.799,25.979-43.244,25.979-69.936c0-4.734-3.838-8.572-8.572-8.572c-5.926,0-11.74,0.49-17.408,1.419
	c16.182-18.799,25.979-43.244,25.979-69.936C363.333,158.424,359.495,154.586,354.761,154.586z M255.999,347.581L255.999,347.581
	L255.999,347.581c5.927,0,11.74-0.49,17.409-1.419c-7.147,8.302-13.046,17.704-17.409,27.916
	c-4.361-10.212-10.262-19.613-17.409-27.916C244.259,347.09,250.073,347.581,255.999,347.581z M255.999,296.988
	c-4.361-10.212-10.261-19.613-17.408-27.916c5.668,0.929,11.481,1.419,17.408,1.419l0,0l0,0c5.926,0,11.74-0.49,17.408-1.419
	C266.261,277.374,260.36,286.777,255.999,296.988z M256.03,219.832c-4.274-10.03-10.096-19.409-17.351-27.833
	c5.64,0.919,11.425,1.405,17.321,1.405l0,0l0,0c5.926,0,11.74-0.49,17.408-1.419C266.277,200.267,260.387,209.646,256.03,219.832z
	 M265.019,175.811c4.245-42.543,38.18-76.478,80.723-80.723C341.496,137.632,307.561,171.568,265.019,175.811z M256,21.32
	c13.185,16.068,20.355,36.027,20.355,57.087s-7.171,41.019-20.355,57.088c-13.185-16.069-20.355-36.028-20.355-57.088
	S242.814,37.388,256,21.32z M246.98,175.811c-42.543-4.245-76.478-38.18-80.723-80.723C208.8,99.334,242.735,133.269,246.98,175.811
	z M246.98,252.901c-42.543-4.245-76.478-38.18-80.723-80.723C208.8,176.423,242.735,210.357,246.98,252.901z M246.98,329.989
	c-42.543-4.245-76.478-38.18-80.723-80.723C208.8,253.511,242.735,287.446,246.98,329.989z M166.257,326.356
	c42.543,4.245,76.478,38.18,80.723,80.723C204.436,402.833,170.501,368.898,166.257,326.356z M265.019,407.078
	c4.245-42.543,38.18-76.478,80.723-80.723C341.496,368.898,307.561,402.833,265.019,407.078z M265.019,329.989
	c4.245-42.543,38.18-76.478,80.723-80.723C341.496,291.81,307.561,325.744,265.019,329.989z M265.014,252.902
	c2.04-20.683,11.083-39.865,25.974-54.756c14.891-14.89,34.071-23.933,54.755-25.974
	C341.501,214.723,307.563,248.661,265.014,252.902z"/>
</svg>